<?xml version="1.0" encoding="UTF-8"?><svg xmlns="http://www.w3.org/2000/svg" width="566" height="182" viewBox="-0.5 -0.5 566 182" ><style><![CDATA[.B{stroke:#b0b0b0}.C{pointer-events:all}.D{font-family:Helvetica}.E{font-size:12px}.F{text-anchor:middle}.G{fill:#fff}.H{fill:#000}.I{fill:#f5f5f5}]]></style><path d="M0 30h90v30H0z" class="B C G"/><text x="44.5" y="48.5" class="D E F H">1</text><path d="M90 30h90v30H90z" class="B C G"/><text x="134.5" y="48.5" class="D E F H">Apple</text><path d="M0 60h90v30H0z" class="B C G"/><text x="44.5" y="78.5" class="D E F H">2</text><path d="M90 60h90v30H90z" class="B C G"/><text x="134.5" y="78.5" class="D E F H">Orange</text><path d="M0 90h90v30H0z" class="B C G"/><text x="44.5" y="108.5" class="D E F H">3</text><path d="M90 90h90v30H90z" class="B C G"/><text x="134.5" y="108.5" class="D E F H">Apple</text><path d="M0 120h90v30H0z" class="B C G"/><text x="44.5" y="138.5" class="D E F H">4</text><path d="M90 120h90v30H90z" class="B C G"/><text x="134.5" y="138.5" class="D E F H">Banana</text><path d="M0 0h90v30H0z" class="B C I"/><text x="44.5" y="18.5" fill="#333" class="D E F">id</text><path d="M90 0h90v30H90z" class="B C I"/><text x="134.5" y="18.5" fill="#333" class="D E F">fruit</text><path d="M0 150h90v30H0z" class="B C G"/><text x="44.5" y="168.5" class="D E F H">5</text><path d="M90 150h90v30H90z" class="B C G"/><text x="134.5" y="168.5" class="D E F H">Orange</text><path d="M400 30h90v30h-90z" class="B C G"/><text x="444.5" y="48.5" class="D E F H">Apple</text><path d="M400 90h90v30h-90z" class="B C G"/><text x="444.5" y="108.5" class="D E F H">Orange</text><path d="M400 60h90v30h-90z" class="B C G"/><text x="444.5" y="78.5" class="D E F H">Banana</text><path d="M400 0h90v30h-90z" class="B C I"/><text x="444.5" y="18.5" fill="#333" class="D E F">fruit</text><path d="M220 51h110V30l40 35-40 35V79H220V65z" stroke-miterlimit="10" class="B C G"/><text x="294.5" y="68.5" class="D E F H">GROUP BY fruit</text><path d="M490 30h75v30h-75z" class="B C G"/><text x="527.5" y="48.5" class="D E F H">2</text><path d="M490 90h75v30h-75z" class="B C G"/><text x="527.5" y="108.5" class="D E F H">2</text><path d="M490 60h75v30h-75z" class="B C G"/><text x="527.5" y="78.5" class="D E F H">1</text><path d="M490 0h75v30h-75z" class="B C I"/><text x="527.5" y="18.5" fill="#333" class="D E F">count(id)</text></svg>